<mxfile host="app.diagrams.net" modified="2023-05-06T15:34:15.563Z" agent="Mozilla/5.0 (Windows NT 10.0; Win64; x64; rv:109.0) Gecko/20100101 Firefox/112.0" etag="52_rz-EzBtD0HjrXIZnC" version="21.2.9" type="github">
  <diagram name="Page-1" id="4MP_wHTS5IgblKxHbQpP">
    <mxGraphModel dx="3056" dy="2225" grid="1" gridSize="10" guides="1" tooltips="1" connect="1" arrows="1" fold="1" page="1" pageScale="1" pageWidth="850" pageHeight="1100" math="0" shadow="0">
      <root>
        <mxCell id="0" />
        <mxCell id="1" parent="0" />
        <mxCell id="YDw4J4Mv-UTdzmyMiHi0-2" value="" style="rounded=0;whiteSpace=wrap;html=1;fillColor=none;strokeWidth=3;" vertex="1" parent="1">
          <mxGeometry x="-370" y="-110" width="70" height="600" as="geometry" />
        </mxCell>
        <mxCell id="YDw4J4Mv-UTdzmyMiHi0-5" value="" style="rounded=0;whiteSpace=wrap;html=1;fillColor=none;strokeWidth=3;" vertex="1" parent="1">
          <mxGeometry x="470" y="-200" width="100" height="680" as="geometry" />
        </mxCell>
        <mxCell id="YDw4J4Mv-UTdzmyMiHi0-7" value="" style="ellipse;whiteSpace=wrap;html=1;strokeColor=default;fillColor=none;strokeWidth=3;" vertex="1" parent="1">
          <mxGeometry x="180" y="-630" width="200" height="80" as="geometry" />
        </mxCell>
        <mxCell id="YDw4J4Mv-UTdzmyMiHi0-8" value="" style="ellipse;whiteSpace=wrap;html=1;strokeColor=default;fillColor=none;strokeWidth=3;" vertex="1" parent="1">
          <mxGeometry x="-140" y="-630" width="320" height="80" as="geometry" />
        </mxCell>
        <mxCell id="YDw4J4Mv-UTdzmyMiHi0-12" value="" style="ellipse;whiteSpace=wrap;html=1;strokeColor=default;fillColor=none;strokeWidth=3;rotation=-60;" vertex="1" parent="1">
          <mxGeometry x="-390" y="-500" width="320" height="100" as="geometry" />
        </mxCell>
        <mxCell id="bcS_UFgCMEz7GKeuc2ld-8" value="" style="verticalLabelPosition=bottom;verticalAlign=top;html=1;shape=mxgraph.basic.polygon;polyCoords=[[0.21,0.13],[0.6,0.38],[0.92,0.6],[0.66,1],[0.48,1],[0.25,1],[0,1],[0,0]];polyline=0;movable=1;resizable=1;rotatable=1;deletable=1;editable=1;locked=0;connectable=1;gradientColor=none;fillColor=none;strokeWidth=3;" parent="1" vertex="1">
          <mxGeometry x="-155" y="-200" width="520" height="680" as="geometry" />
        </mxCell>
        <mxCell id="bcS_UFgCMEz7GKeuc2ld-10" value="&lt;div style=&quot;font-size: 24px;&quot;&gt;&lt;font style=&quot;font-size: 24px;&quot;&gt;Rear of Property&lt;/font&gt;&lt;/div&gt;" style="text;html=1;strokeColor=none;fillColor=none;align=center;verticalAlign=middle;whiteSpace=wrap;rounded=0;movable=1;resizable=1;rotatable=1;deletable=1;editable=1;locked=0;connectable=1;" parent="1" vertex="1">
          <mxGeometry x="-20" y="-800" width="60" height="30" as="geometry" />
        </mxCell>
        <mxCell id="bcS_UFgCMEz7GKeuc2ld-11" value="&lt;font style=&quot;font-size: 24px;&quot;&gt;Walkway&lt;/font&gt;" style="text;html=1;strokeColor=none;fillColor=none;align=center;verticalAlign=middle;whiteSpace=wrap;rounded=0;movable=0;resizable=0;rotatable=0;deletable=0;editable=0;locked=1;connectable=0;" parent="1" vertex="1">
          <mxGeometry x="330" y="340" width="60" height="30" as="geometry" />
        </mxCell>
        <mxCell id="onrP9M23zTc9Jmrbzn4V-1" value="Roma Tomato" style="shape=image;html=1;verticalAlign=top;verticalLabelPosition=bottom;labelBackgroundColor=#ffffff;imageAspect=0;aspect=fixed;image=https://cdn1.iconfinder.com/data/icons/icons-for-a-site-1/64/advantage_eco_friendly-128.png" parent="1" vertex="1">
          <mxGeometry x="-150" y="400" width="80" height="80" as="geometry" />
        </mxCell>
        <mxCell id="onrP9M23zTc9Jmrbzn4V-4" value="&lt;div&gt;Pink Bumblebee Tomato&lt;/div&gt;" style="shape=image;html=1;verticalAlign=top;verticalLabelPosition=bottom;labelBackgroundColor=#ffffff;imageAspect=0;aspect=fixed;image=https://cdn1.iconfinder.com/data/icons/icons-for-a-site-1/64/advantage_eco_friendly-128.png" parent="1" vertex="1">
          <mxGeometry x="10" y="240" width="80" height="80" as="geometry" />
        </mxCell>
        <mxCell id="onrP9M23zTc9Jmrbzn4V-5" value="&lt;div&gt;Pineapple Tomato&lt;/div&gt;" style="shape=image;html=1;verticalAlign=top;verticalLabelPosition=bottom;labelBackgroundColor=#ffffff;imageAspect=0;aspect=fixed;image=https://cdn1.iconfinder.com/data/icons/icons-for-a-site-1/64/advantage_eco_friendly-128.png" parent="1" vertex="1">
          <mxGeometry x="-70" y="240" width="80" height="80" as="geometry" />
        </mxCell>
        <mxCell id="onrP9M23zTc9Jmrbzn4V-6" value="Roma Tomato" style="shape=image;html=1;verticalAlign=top;verticalLabelPosition=bottom;labelBackgroundColor=#ffffff;imageAspect=0;aspect=fixed;image=https://cdn1.iconfinder.com/data/icons/icons-for-a-site-1/64/advantage_eco_friendly-128.png" parent="1" vertex="1">
          <mxGeometry x="-70" y="400" width="80" height="80" as="geometry" />
        </mxCell>
        <mxCell id="onrP9M23zTc9Jmrbzn4V-7" value="&lt;div&gt;Pink Bumblebee Tomato&lt;/div&gt;" style="shape=image;html=1;verticalAlign=top;verticalLabelPosition=bottom;labelBackgroundColor=#ffffff;imageAspect=0;aspect=fixed;image=https://cdn1.iconfinder.com/data/icons/icons-for-a-site-1/64/advantage_eco_friendly-128.png" parent="1" vertex="1">
          <mxGeometry x="10" y="400" width="80" height="80" as="geometry" />
        </mxCell>
        <mxCell id="onrP9M23zTc9Jmrbzn4V-8" value="&lt;div&gt;Pineapple Tomato&lt;/div&gt;" style="shape=image;html=1;verticalAlign=top;verticalLabelPosition=bottom;labelBackgroundColor=#ffffff;imageAspect=0;aspect=fixed;image=https://cdn1.iconfinder.com/data/icons/icons-for-a-site-1/64/advantage_eco_friendly-128.png" parent="1" vertex="1">
          <mxGeometry x="-150" y="240" width="80" height="80" as="geometry" />
        </mxCell>
        <mxCell id="onrP9M23zTc9Jmrbzn4V-9" value="Tomatillo" style="shape=image;html=1;verticalAlign=top;verticalLabelPosition=bottom;labelBackgroundColor=#ffffff;imageAspect=0;image=https://cdn1.iconfinder.com/data/icons/icons-for-a-site-1/64/advantage_eco_friendly-128.png;rotation=90;" parent="1" vertex="1">
          <mxGeometry x="-130" y="60" width="80" height="120" as="geometry" />
        </mxCell>
        <mxCell id="onrP9M23zTc9Jmrbzn4V-11" value="Tomatillo" style="shape=image;html=1;verticalAlign=top;verticalLabelPosition=bottom;labelBackgroundColor=#ffffff;imageAspect=0;image=https://cdn1.iconfinder.com/data/icons/icons-for-a-site-1/64/advantage_eco_friendly-128.png;rotation=90;" parent="1" vertex="1">
          <mxGeometry x="-130" y="-100" width="80" height="120" as="geometry" />
        </mxCell>
        <mxCell id="onrP9M23zTc9Jmrbzn4V-12" value="Tomatillo" style="shape=image;html=1;verticalAlign=top;verticalLabelPosition=bottom;labelBackgroundColor=#ffffff;imageAspect=0;image=https://cdn1.iconfinder.com/data/icons/icons-for-a-site-1/64/advantage_eco_friendly-128.png;rotation=90;" parent="1" vertex="1">
          <mxGeometry x="-130" y="-20" width="80" height="120" as="geometry" />
        </mxCell>
        <mxCell id="onrP9M23zTc9Jmrbzn4V-13" value="French Bean" style="shape=image;html=1;verticalAlign=top;verticalLabelPosition=bottom;labelBackgroundColor=#ffffff;imageAspect=0;aspect=fixed;image=https://cdn1.iconfinder.com/data/icons/icons-for-a-site-1/64/advantage_eco_friendly-128.png" parent="1" vertex="1">
          <mxGeometry x="210" y="340" width="20" height="20" as="geometry" />
        </mxCell>
        <mxCell id="onrP9M23zTc9Jmrbzn4V-14" value="&lt;div&gt;Jade Bean&lt;/div&gt;" style="shape=image;html=1;verticalAlign=top;verticalLabelPosition=bottom;labelBackgroundColor=#ffffff;imageAspect=0;image=https://cdn1.iconfinder.com/data/icons/icons-for-a-site-1/64/advantage_eco_friendly-128.png" parent="1" vertex="1">
          <mxGeometry x="230" y="340" width="20" height="20" as="geometry" />
        </mxCell>
        <mxCell id="onrP9M23zTc9Jmrbzn4V-15" value="Dragon Bean" style="shape=image;html=1;verticalAlign=top;verticalLabelPosition=bottom;labelBackgroundColor=#ffffff;imageAspect=0;aspect=fixed;image=https://cdn1.iconfinder.com/data/icons/icons-for-a-site-1/64/advantage_eco_friendly-128.png" parent="1" vertex="1">
          <mxGeometry x="230" y="320" width="20" height="20" as="geometry" />
        </mxCell>
        <mxCell id="onrP9M23zTc9Jmrbzn4V-16" value="Golden Squash" style="shape=image;html=1;verticalAlign=top;verticalLabelPosition=bottom;labelBackgroundColor=#ffffff;imageAspect=0;aspect=fixed;image=https://cdn1.iconfinder.com/data/icons/icons-for-a-site-1/64/advantage_eco_friendly-128.png" parent="1" vertex="1">
          <mxGeometry x="90" y="20" width="80" height="80" as="geometry" />
        </mxCell>
        <mxCell id="onrP9M23zTc9Jmrbzn4V-17" value="Green Squash" style="shape=image;html=1;verticalAlign=top;verticalLabelPosition=bottom;labelBackgroundColor=#ffffff;imageAspect=0;aspect=fixed;image=https://cdn1.iconfinder.com/data/icons/icons-for-a-site-1/64/advantage_eco_friendly-128.png" parent="1" vertex="1">
          <mxGeometry x="20" y="-30" width="80" height="80" as="geometry" />
        </mxCell>
        <mxCell id="onrP9M23zTc9Jmrbzn4V-18" value="Green Squash" style="shape=image;html=1;verticalAlign=top;verticalLabelPosition=bottom;labelBackgroundColor=#ffffff;imageAspect=0;aspect=fixed;image=https://cdn1.iconfinder.com/data/icons/icons-for-a-site-1/64/advantage_eco_friendly-128.png" parent="1" vertex="1">
          <mxGeometry x="170" y="80" width="80" height="80" as="geometry" />
        </mxCell>
        <mxCell id="onrP9M23zTc9Jmrbzn4V-19" value="Golden Squash" style="shape=image;html=1;verticalAlign=top;verticalLabelPosition=bottom;labelBackgroundColor=#ffffff;imageAspect=0;aspect=fixed;image=https://cdn1.iconfinder.com/data/icons/icons-for-a-site-1/64/advantage_eco_friendly-128.png" parent="1" vertex="1">
          <mxGeometry x="240" y="130" width="80" height="80" as="geometry" />
        </mxCell>
        <mxCell id="onrP9M23zTc9Jmrbzn4V-22" value="Echinacea" style="shape=image;html=1;verticalAlign=top;verticalLabelPosition=bottom;labelBackgroundColor=#ffffff;imageAspect=0;aspect=fixed;image=https://cdn1.iconfinder.com/data/icons/icons-for-a-site-1/64/advantage_eco_friendly-128.png" parent="1" vertex="1">
          <mxGeometry x="170" y="360" width="80" height="80" as="geometry" />
        </mxCell>
        <mxCell id="onrP9M23zTc9Jmrbzn4V-23" value="Echinacea" style="shape=image;html=1;verticalAlign=top;verticalLabelPosition=bottom;labelBackgroundColor=#ffffff;imageAspect=0;aspect=fixed;image=https://cdn1.iconfinder.com/data/icons/icons-for-a-site-1/64/advantage_eco_friendly-128.png" parent="1" vertex="1">
          <mxGeometry x="-160" y="-210" width="80" height="80" as="geometry" />
        </mxCell>
        <mxCell id="YDw4J4Mv-UTdzmyMiHi0-13" value="&lt;div style=&quot;font-size: 24px;&quot;&gt;&lt;font style=&quot;font-size: 24px;&quot;&gt;Front of Property&lt;/font&gt;&lt;/div&gt;" style="text;html=1;strokeColor=none;fillColor=none;align=center;verticalAlign=middle;whiteSpace=wrap;rounded=0;movable=1;resizable=1;rotatable=1;deletable=1;editable=1;locked=0;connectable=1;" vertex="1" parent="1">
          <mxGeometry x="-10" y="630" width="60" height="30" as="geometry" />
        </mxCell>
        <mxCell id="YDw4J4Mv-UTdzmyMiHi0-14" value="&lt;b style=&quot;font-size: 17px;&quot;&gt;Diamond Garden&lt;br&gt;&lt;/b&gt;" style="text;html=1;strokeColor=none;fillColor=none;align=center;verticalAlign=middle;whiteSpace=wrap;rounded=0;movable=1;resizable=1;rotatable=1;deletable=1;editable=1;locked=0;connectable=1;" vertex="1" parent="1">
          <mxGeometry x="75" y="-90" width="60" height="30" as="geometry" />
        </mxCell>
        <mxCell id="YDw4J4Mv-UTdzmyMiHi0-16" value="&lt;font style=&quot;font-size: 16px;&quot;&gt;&lt;b&gt;Pepper Garden&lt;br&gt;&lt;/b&gt;&lt;/font&gt;" style="text;html=1;strokeColor=none;fillColor=none;align=center;verticalAlign=middle;whiteSpace=wrap;rounded=0;movable=1;resizable=1;rotatable=1;deletable=1;editable=1;locked=0;connectable=1;" vertex="1" parent="1">
          <mxGeometry x="-360" y="-170" width="60" height="30" as="geometry" />
        </mxCell>
        <mxCell id="YDw4J4Mv-UTdzmyMiHi0-17" value="&lt;font style=&quot;font-size: 16px;&quot;&gt;&lt;b&gt;Garage Garden&lt;br&gt;&lt;/b&gt;&lt;/font&gt;" style="text;html=1;strokeColor=none;fillColor=none;align=center;verticalAlign=middle;whiteSpace=wrap;rounded=0;movable=1;resizable=1;rotatable=1;deletable=1;editable=1;locked=0;connectable=1;" vertex="1" parent="1">
          <mxGeometry x="490" y="-280" width="60" height="30" as="geometry" />
        </mxCell>
        <mxCell id="YDw4J4Mv-UTdzmyMiHi0-18" value="&lt;font style=&quot;font-size: 16px;&quot;&gt;&lt;b&gt;Rear Bed A&lt;br&gt;&lt;/b&gt;&lt;/font&gt;" style="text;html=1;strokeColor=none;fillColor=none;align=center;verticalAlign=middle;whiteSpace=wrap;rounded=0;movable=1;resizable=1;rotatable=1;deletable=1;editable=1;locked=0;connectable=1;" vertex="1" parent="1">
          <mxGeometry x="270" y="-690" width="60" height="30" as="geometry" />
        </mxCell>
        <mxCell id="YDw4J4Mv-UTdzmyMiHi0-19" value="&lt;font style=&quot;font-size: 16px;&quot;&gt;&lt;b&gt;Rear Bed B&lt;br&gt;&lt;/b&gt;&lt;/font&gt;" style="text;html=1;strokeColor=none;fillColor=none;align=center;verticalAlign=middle;whiteSpace=wrap;rounded=0;movable=1;resizable=1;rotatable=1;deletable=1;editable=1;locked=0;connectable=1;" vertex="1" parent="1">
          <mxGeometry x="-30" y="-690" width="60" height="30" as="geometry" />
        </mxCell>
        <mxCell id="YDw4J4Mv-UTdzmyMiHi0-20" value="&lt;font style=&quot;font-size: 16px;&quot;&gt;&lt;b&gt;Rear Bed C&lt;br&gt;&lt;/b&gt;&lt;/font&gt;" style="text;html=1;strokeColor=none;fillColor=none;align=center;verticalAlign=middle;whiteSpace=wrap;rounded=0;movable=1;resizable=1;rotatable=1;deletable=1;editable=1;locked=0;connectable=1;" vertex="1" parent="1">
          <mxGeometry x="-350" y="-540" width="60" height="30" as="geometry" />
        </mxCell>
      </root>
    </mxGraphModel>
  </diagram>
</mxfile>
